HIERARCHY
ROOT Hips
{
	OFFSET 0.00000 0.00000 0.00000
	CHANNELS 6 Xposition Yposition Zposition Zrotation Yrotation Xrotation 
	JOINT LHipJoint
	{
		OFFSET 0 0 0
		CHANNELS 3 Zrotation Yrotation Xrotation
		JOINT LeftUpLeg
		{
			OFFSET 1.26600 -1.82114 0.91038
			CHANNELS 3 Zrotation Yrotation Xrotation
			JOINT LeftLeg
			{
				OFFSET 2.50076 -6.87080 0.00000
				CHANNELS 3 Zrotation Yrotation Xrotation
				JOINT LeftFoot
				{
					OFFSET 2.57364 -7.07102 0.00000
					CHANNELS 3 Zrotation Yrotation Xrotation
					JOINT LeftToeBase
					{
						OFFSET 0.13572 -0.37290 1.97004
						CHANNELS 3 Zrotation Yrotation Xrotation
						End Site
						{
							OFFSET 0.00000 -0.00000 1.01383
						}
					}
				}
			}
		}
	}
	JOINT RHipJoint
	{
		OFFSET 0 0 0
		CHANNELS 3 Zrotation Yrotation Xrotation
		JOINT RightUpLeg
		{
			OFFSET -1.20803 -1.82114 0.91038
			CHANNELS 3 Zrotation Yrotation Xrotation
			JOINT RightLeg
			{
				OFFSET -2.54916 -7.00377 0.00000
				CHANNELS 3 Zrotation Yrotation Xrotation
				JOINT RightFoot
				{
					OFFSET -2.56374 -7.04382 0.00000
					CHANNELS 3 Zrotation Yrotation Xrotation
					JOINT RightToeBase
					{
						OFFSET -0.23520 -0.64621 2.09921
						CHANNELS 3 Zrotation Yrotation Xrotation
						End Site
						{
							OFFSET -0.00000 -0.00000 1.10065
						}
					}
				}
			}
		}
	}
	JOINT LowerBack
	{
		OFFSET 0 0 0
		CHANNELS 3 Zrotation Yrotation Xrotation
		JOINT Spine
		{
			OFFSET 0.05492 2.10797 -0.12074
			CHANNELS 3 Zrotation Yrotation Xrotation
			JOINT Spine1
			{
				OFFSET 0.04577 2.11592 -0.04483
				CHANNELS 3 Zrotation Yrotation Xrotation
				JOINT Neck
				{
					OFFSET 0 0 0
					CHANNELS 3 Zrotation Yrotation Xrotation
					JOINT Neck1
					{
						OFFSET -0.10759 1.80167 0.15770
						CHANNELS 3 Zrotation Yrotation Xrotation
						JOINT Head
						{
							OFFSET 0.09237 1.77509 -0.40848
							CHANNELS 3 Zrotation Yrotation Xrotation
							End Site
							{
								OFFSET 0.03805 1.84093 -0.15754
							}
						}
					}
				}
				JOINT LeftShoulder
				{
					OFFSET 0 0 0
					CHANNELS 3 Zrotation Yrotation Xrotation
					JOINT LeftArm
					{
						OFFSET 3.42372 1.09575 -0.28209
						CHANNELS 3 Zrotation Yrotation Xrotation
						JOINT LeftForeArm
						{
							OFFSET 4.95681 -0.00000 0.00000
							CHANNELS 3 Zrotation Yrotation Xrotation
							JOINT LeftHand
							{
								OFFSET 3.40915 -0.00000 0.00000
								CHANNELS 3 Zrotation Yrotation Xrotation
								JOINT LeftFingerBase
								{
									OFFSET 0 0 0
									CHANNELS 3 Zrotation Yrotation Xrotation
									JOINT LeftHandIndex1
									{
										OFFSET 0.61640 -0.00000 0.00000
										CHANNELS 3 Zrotation Yrotation Xrotation
										End Site
										{
											OFFSET 0.49696 -0.00000 0.00000
										}
									}
								}
								JOINT LThumb
								{
									OFFSET 0 0 0
									CHANNELS 3 Zrotation Yrotation Xrotation
									End Site
									{
										OFFSET 0.50455 -0.00000 0.50455
									}
								}
							}
						}
					}
				}
				JOINT RightShoulder
				{
					OFFSET 0 0 0
					CHANNELS 3 Zrotation Yrotation Xrotation
					JOINT RightArm
					{
						OFFSET -3.24731 1.15872 -0.32221
						CHANNELS 3 Zrotation Yrotation Xrotation
						JOINT RightForeArm
						{
							OFFSET -5.35200 -0.00000 0.00000
							CHANNELS 3 Zrotation Yrotation Xrotation
							JOINT RightHand
							{
								OFFSET -3.43721 -0.00000 -0.00000
								CHANNELS 3 Zrotation Yrotation Xrotation
								JOINT RightFingerBase
								{
									OFFSET 0 0 0
									CHANNELS 3 Zrotation Yrotation Xrotation
									JOINT RightHandIndex1
									{
										OFFSET -0.72009 -0.00000 0.00000
										CHANNELS 3 Zrotation Yrotation Xrotation
										End Site
										{
											OFFSET -0.58056 -0.00000 0.00000
										}
									}
								}
								JOINT RThumb
								{
									OFFSET 0 0 0
									CHANNELS 3 Zrotation Yrotation Xrotation
									End Site
									{
										OFFSET -0.58942 -0.00000 0.58942
									}
								}
							}
						}
					}
				}
			}
		}
	}
}
MOTION
Frames: 11
Frame Time: .0083333
-3.5177 17.287 -1.5355 0 0 0 0 0 0 -21 0 0 0 0 0 0 0 0 0 0 0 0 0 0 21 0 0 0 0 0 0 0 0 0 0 0 0 0 0 0 0 0 0 0 0 0 0 -16 0 0 21 0 0 11 0 0 0 -8 0 0 0 0 0 0 0 0 0 0 0 0 0 0 0 0 0 0 0 0 8 0 0 0 0 0 0 0 0 0 0 0 0 0 0 0 0 0
-3.5177 17.2870 -1.5355 -6.2645 4.8831 -1.0004 0.0000 0.0000 0.0000 -9.1847 -6.7389 -16.1773 7.4878 15.7293 50.6960 -0.0017 -11.2365 -7.8561 0.1859 -2.7770 -7.6585 0.0000 0.0000 0.0000 30.3246 -3.1217 -5.6238 -2.5019 -9.8413 28.4644 -1.7074 2.6156 -24.0148 -0.1752 -2.6966 7.4352 5.6675 -0.1251 4.7585 3.3118 0.0456 3.2331 0.2322 0.0804 0.6702 -7.9786 1.6355 -11.3332 -0.2169 5.2126 40.9864 2.2132 0.9530 16.5303 0.0000 0.0000 0.0000 -90.0974 4.9200 21.5072 23.5073 -34.6389 -7.4246 -0.0000 0.0000 -9.9680 20.2591 26.0605 9.2105 -7.1250 0.0000 -0.0000 -10.6639 57.1933 -3.2100 0.0000 0.0000 0.0000 86.4173 -4.0209 17.9748 -16.2914 25.9141 -3.7724 0.0000 -0.0000 -11.8776 -21.1109 13.4581 -5.1346 7.1250 -0.0000 -0.0000 4.2936 -15.6197 2.9875
-3.5384 17.2982 -1.5243 -6.4272 5.1025 -1.0243 0.0000 0.0000 0.0000 -8.6683 -7.1316 -17.3726 7.9433 16.0774 52.3582 -0.1302 -11.2572 -5.7837 0.2545 -3.2461 -8.9647 0.0000 0.0000 0.0000 30.6183 -3.2732 -5.3391 -2.4036 -9.6606 27.8844 -1.6648 2.4665 -23.7355 -0.2054 -2.9184 8.0516 5.8839 -0.0347 4.8664 3.3666 0.1817 3.2680 0.1630 0.1515 0.6530 -7.8083 1.5292 -11.0665 -0.4866 5.0527 40.5681 2.0244 0.9038 16.2647 -0.0000 -0.0000 0.0000 -89.9496 4.9648 21.8135 23.5187 -34.6511 -7.4311 -0.0000 0.0000 -9.5725 20.0373 25.4584 8.9098 -7.1250 0.0000 -0.0000 -10.6044 56.5385 -3.0234 -0.0000 -0.0000 0.0000 86.4412 -3.7597 16.9588 -15.8074 25.2588 -3.5634 0.0000 -0.0000 -11.7976 -21.3020 13.7174 -5.2828 7.1250 -0.0000 -0.0000 4.1735 -15.3252 2.9299
-3.5561 17.3068 -1.5139 -6.9149 5.3040 -1.1403 0.0000 0.0000 0.0000 -7.7723 -7.4207 -18.5821 8.4289 16.4258 54.0932 -0.2298 -11.2949 -3.8536 0.3931 -4.0258 -11.1493 0.0000 0.0000 0.0000 31.2551 -3.4603 -5.0165 -2.3093 -9.4826 27.3170 -1.6271 2.1543 -23.5287 -0.2054 -2.9181 8.0507 6.3299 -0.0989 4.9707 3.5665 0.1174 3.3632 0.1248 0.1269 0.6942 -7.7692 1.5704 -11.0462 -0.6174 5.1452 40.4283 1.9719 0.9388 16.1890 0.0000 -0.0000 0.0000 -90.1720 5.0915 21.2978 23.5255 -34.6585 -7.4350 -0.0000 0.0000 -8.8626 19.8629 24.5014 8.5207 -7.1250 0.0000 -0.0000 -10.3428 55.5348 -2.6952 0.0000 -0.0000 0.0000 86.3152 -3.3719 16.2278 -15.3480 24.6286 -3.3696 0.0000 -0.0000 -11.5169 -21.2850 13.8511 -5.3283 7.1250 -0.0000 -0.0000 4.1910 -15.1852 2.9550
-3.5699 17.3017 -1.5052 -7.5700 5.5178 -1.2979 0.0000 0.0000 0.0000 -6.6823 -7.7307 -19.7172 8.8922 16.7378 55.7165 -0.3094 -11.2165 -1.7058 0.2029 -2.9003 -8.0014 0.0000 0.0000 0.0000 32.0498 -3.6766 -4.7057 -2.2229 -9.3158 26.7883 -1.5876 1.7827 -23.3235 -0.1986 -2.8700 7.9170 7.1045 -0.0782 5.1624 3.7769 0.1899 3.4446 -0.0897 0.1747 0.6821 -7.8972 1.4486 -11.1860 -0.5670 4.9985 40.4234 1.9974 0.8655 16.2236 0.0000 0.0000 0.0000 -90.2895 4.9753 21.2903 23.4394 -34.5658 -7.3861 -0.0000 0.0000 -8.5152 19.6982 24.5857 8.4722 -7.1250 0.0000 -0.0000 -10.5518 55.5869 -2.7639 0.0000 0.0000 0.0000 86.2717 -3.0938 15.0898 -14.9107 24.0216 -3.1895 0.0000 -0.0000 -11.0180 -21.3351 13.9040 -5.3619 7.1250 -0.0000 -0.0000 4.1592 -15.1238 2.9378
-3.5864 17.2955 -1.4929 -8.0420 5.6817 -1.4321 0.0000 0.0000 0.0000 -5.8054 -8.0185 -20.8682 9.3258 17.0128 57.2101 -0.3568 -11.1492 0.1466 0.0784 -1.8063 -4.9707 0.0000 0.0000 0.0000 32.6514 -3.8161 -4.3875 -2.1475 -9.1668 26.3186 -1.5675 1.6882 -23.1957 -0.1930 -2.8290 7.8030 7.6451 0.0291 5.3912 3.8882 0.3806 3.4435 -0.2828 0.2744 0.5703 -7.7972 1.2549 -11.1319 -0.6077 4.6861 40.3459 1.9112 0.7522 16.1877 -0.0000 0.0000 0.0000 -90.1693 4.7359 21.6701 23.2478 -34.3587 -7.2777 -0.0000 0.0000 -8.5442 19.0447 25.2028 8.3623 -7.1250 0.0000 -0.0000 -11.5201 56.0751 -3.1593 -0.0000 0.0000 0.0000 86.3593 -3.0401 13.9228 -14.4895 23.4302 -3.0200 0.0000 -0.0000 -10.5666 -21.3894 13.5537 -5.2447 7.1250 -0.0000 -0.0000 4.1065 -15.4898 2.8681
-3.6030 17.2990 -1.4749 -8.1360 5.7733 -1.5845 0.0000 0.0000 0.0000 -5.4112 -8.1915 -21.8288 9.7132 17.2454 58.5255 -0.3925 -11.3384 1.3375 0.1025 -2.0641 -5.6829 0.0000 0.0000 0.0000 32.8133 -4.0257 -4.0444 -2.0879 -9.0467 25.9417 -1.5695 1.9052 -23.1554 -0.2131 -2.9723 8.2017 7.6833 0.0582 5.5787 3.8969 0.4367 3.5140 -0.2979 0.3036 0.5431 -7.5065 1.1963 -10.9798 -0.7778 4.5526 40.1780 1.7591 0.7281 16.0795 -0.0000 -0.0000 0.0000 -90.0918 4.6265 21.5483 23.1833 -34.2886 -7.2413 -0.0000 0.0000 -8.1730 18.5157 25.5486 8.2186 -7.1250 0.0000 -0.0000 -12.2409 56.3120 -3.4318 -0.0000 -0.0000 0.0000 86.4056 -2.9293 13.1863 -14.1617 22.9654 -2.8909 0.0000 -0.0000 -10.2677 -21.0167 13.3505 -5.0697 7.1250 -0.0000 -0.0000 4.3540 -15.7432 3.0182
-3.6132 17.2986 -1.4554 -8.1674 5.7552 -1.7323 0.0000 0.0000 0.0000 -5.1374 -8.2431 -22.6738 10.0660 17.4468 59.7087 -0.4161 -11.5568 1.8980 0.1758 -2.7006 -7.4463 0.0000 0.0000 0.0000 32.8599 -4.3011 -3.7064 -2.0337 -8.9359 25.5949 -1.5610 2.0794 -23.0485 -0.2382 -3.1410 8.6715 7.7591 0.0774 5.7319 3.9030 0.4703 3.6785 -0.3346 0.3274 0.6323 -7.5296 1.1638 -10.9897 -0.7248 4.4843 40.1076 1.7746 0.7067 16.0442 -0.0000 0.0000 0.0000 -90.1126 4.5132 21.2907 23.1241 -34.2242 -7.2080 -0.0000 0.0000 -7.8211 19.0572 25.2016 8.3678 -7.1250 0.0000 -0.0000 -11.5065 56.0765 -3.1559 -0.0000 0.0000 0.0000 86.3264 -2.5512 12.5585 -13.7662 22.3995 -2.7384 0.0000 -0.0000 -9.9793 -20.8463 13.3877 -5.0386 7.1250 -0.0000 -0.0000 4.4727 -15.7208 3.1031
-3.6203 17.2982 -1.4334 -8.2493 5.5510 -1.8950 0.0000 0.0000 0.0000 -4.8557 -8.1168 -23.4621 10.3857 17.6211 60.7700 -0.4350 -11.8920 1.5589 0.3632 -3.8716 -10.7157 0.0000 0.0000 0.0000 32.9353 -4.4892 -3.3101 -1.9822 -8.8289 25.2614 -1.5224 2.0811 -22.7521 -0.2326 -3.1042 8.5690 7.9482 0.1871 5.9200 3.9301 0.6324 3.8542 -0.4185 0.4173 0.7243 -7.6960 1.1139 -11.1180 -0.5809 4.4173 40.1212 1.8592 0.6722 16.0763 0.0000 0.0000 0.0000 -90.1393 4.4152 21.3846 23.0387 -34.1311 -7.1600 -0.0000 0.0000 -8.2431 20.1039 24.2219 8.5403 -7.1250 0.0000 -0.0000 -9.9690 55.2998 -2.5392 0.0000 0.0000 0.0000 86.1838 -2.1181 11.9700 -13.2512 21.6542 -2.5452 0.0000 -0.0000 -9.7861 -21.1393 13.7700 -5.2583 7.1250 -0.0000 -0.0000 4.2873 -15.2863 3.0139
-3.6294 17.3059 -1.4078 -8.2325 5.3895 -2.0006 0.0000 0.0000 0.0000 -4.7128 -7.9647 -24.2110 10.6570 17.7631 61.6624 -0.4652 -12.5233 0.7221 0.5717 -4.8422 -13.4589 0.0000 0.0000 0.0000 32.8983 -4.7159 -2.9854 -1.9312 -8.7213 24.9273 -1.4787 2.1622 -22.3937 -0.2259 -3.0594 8.4443 7.9419 0.3013 5.9772 4.0102 0.7766 4.0282 -0.3377 0.4963 0.8823 -8.0065 1.0897 -11.3589 -0.4445 4.4557 40.2101 1.9866 0.6543 16.1710 -0.0000 -0.0000 0.0000 -90.3154 4.3182 21.5036 22.9515 -34.0357 -7.1111 -0.0000 0.0000 -9.0091 20.1618 24.0537 8.5115 -7.1250 0.0000 -0.0000 -9.8362 55.1405 -2.4666 -0.0000 -0.0000 0.0000 85.9397 -1.7032 11.3279 -12.7654 20.9425 -2.3688 0.0000 -0.0000 -9.4435 -21.1908 14.0999 -5.3954 7.1250 -0.0000 -0.0000 4.2666 -14.9315 3.0317
-3.6413 17.3108 -1.3848 -8.2392 5.3715 -1.9941 0.0000 0.0000 0.0000 -4.5186 -7.9058 -25.0503 10.8739 17.8728 62.3713 -0.5032 -13.2306 0.0980 0.5505 -4.7532 -13.2061 0.0000 0.0000 0.0000 32.9352 -4.9171 -2.8020 -1.8807 -8.6129 24.5918 -1.4512 2.2795 -22.1505 -0.2326 -3.1039 8.5682 7.8687 0.3714 5.9689 4.1021 0.8597 4.1039 -0.2051 0.5393 0.9682 -8.2874 1.0556 -11.5228 -0.3006 4.4602 40.3155 2.1057 0.6277 16.2575 -0.0000 -0.0000 0.0000 -90.5104 4.2632 21.2232 22.6921 -33.7504 -6.9665 -0.0000 0.0000 -9.1737 19.2179 24.9423 8.3626 -7.1250 0.0000 -0.0000 -11.2156 55.8489 -3.0125 -0.0000 -0.0000 0.0000 85.7744 -1.4587 10.6258 -12.4206 20.4324 -2.2470 0.0000 -0.0000 -8.7693 -21.0603 13.9032 -5.2863 7.1250 -0.0000 -0.0000 4.3471 -15.1536 3.0686
